<svg id="Layer_1" data-name="Layer 1" xmlns="http://www.w3.org/2000/svg" viewBox="0 0 100 100"><defs><style>.cls-1{fill:#2dd3b3;}</style></defs><path class="cls-1" d="M38.89,5H80.15V7.41h-7V62.25q0,17.13-7.75,24.94T42.19,95q-10.27,0-16.31-3.93a12.49,12.49,0,0,1-6-11c0-3.64,1-6.49,3-8.57a11.11,11.11,0,0,1,8.31-3.11c3.51,0,6.14.89,7.87,2.67a8.83,8.83,0,0,1,2.61,6.41A21.83,21.83,0,0,1,40.29,85H35.34a7.1,7.1,0,0,0-1.14,3.62,3.51,3.51,0,0,0,1.71,2.92,7.69,7.69,0,0,0,4.51,1.21c3.38,0,5.56-1.34,6.53-4s1.46-8.44,1.46-17.33v-64H38.89Z"/></svg>